<?xml version="1.0" standalone="no"?>
<!DOCTYPE svg PUBLIC "-//W3C//DTD SVG 20010904//EN"
 "http://www.w3.org/TR/2001/REC-SVG-20010904/DTD/svg10.dtd">
<svg version="1.0" xmlns="http://www.w3.org/2000/svg"
 width="560.000000pt" height="560.000000pt" viewBox="0 0 560.000000 560.000000"
 preserveAspectRatio="xMidYMid meet">
<metadata>
Created by potrace 1.14, written by Peter Selinger 2001-2017
</metadata>
<g transform="translate(0.000000,560.000000) scale(0.100000,-0.100000)"
fill="#000000" stroke="none">
<path d="M2668 5576 c-44 -23 -321 -186 -541 -317 -54 -33 -102 -59 -107 -59
-6 0 -10 -4 -10 -9 0 -5 -10 -13 -22 -17 -13 -4 -41 -19 -63 -34 -22 -15 -47
-30 -55 -33 -8 -4 -33 -18 -55 -32 -22 -14 -52 -31 -67 -37 -16 -7 -28 -16
-28 -20 0 -4 -4 -8 -9 -8 -8 0 -194 -107 -241 -139 -14 -10 -50 -31 -80 -47
-30 -16 -57 -32 -60 -35 -3 -4 -25 -17 -49 -30 -24 -13 -51 -28 -60 -34 -9 -5
-85 -50 -169 -100 -84 -49 -160 -95 -170 -100 -9 -6 -35 -21 -57 -33 -22 -12
-53 -31 -70 -42 -16 -10 -41 -25 -55 -33 -14 -8 -77 -45 -140 -82 -63 -38
-143 -85 -178 -106 -35 -20 -77 -55 -93 -78 -17 -22 -29 -41 -29 -43 1 -2 -1
-20 -5 -40 -9 -50 16 -123 57 -165 18 -18 36 -33 40 -33 5 0 21 -8 36 -19 15
-10 116 -69 225 -131 108 -63 197 -116 197 -119 0 -8 -41 -34 -225 -141 -88
-51 -176 -104 -196 -117 -19 -12 -38 -23 -43 -23 -11 0 -56 -51 -75 -85 -14
-27 -16 -111 -19 -858 -2 -550 1 -841 8 -865 6 -20 20 -48 33 -62 26 -29 107
-84 107 -73 0 5 4 3 8 -3 4 -5 61 -41 127 -78 66 -38 134 -77 150 -86 44 -25
208 -120 225 -130 20 -12 280 -162 305 -176 17 -10 338 -195 445 -257 19 -11
60 -33 90 -50 30 -16 62 -36 71 -43 8 -8 18 -14 21 -14 8 0 230 -127 245 -140
7 -5 14 -10 17 -10 2 0 44 -23 93 -51 48 -29 108 -63 133 -77 25 -13 50 -28
55 -32 6 -4 30 -19 55 -32 25 -14 63 -36 85 -48 22 -13 51 -30 65 -37 14 -8
43 -25 65 -39 80 -50 139 -72 180 -68 58 5 69 8 98 27 15 9 29 17 31 17 3 0
29 14 58 31 53 32 86 51 154 89 19 11 45 26 57 34 51 32 222 130 227 131 3 0
24 13 47 28 24 15 45 27 49 27 3 0 18 8 32 19 15 10 50 31 77 45 28 15 57 31
65 36 87 54 152 90 160 90 6 0 10 4 10 9 0 5 9 13 21 16 11 4 44 21 72 38 29
17 61 36 72 42 11 7 24 12 29 13 5 0 12 4 15 9 3 4 17 14 31 22 14 8 95 55
180 104 85 49 196 112 245 140 50 28 92 55 93 59 2 5 9 8 16 8 6 0 28 11 49
25 20 14 37 22 37 18 0 -4 4 -3 8 3 4 5 30 23 57 38 28 16 70 40 95 54 25 13
57 33 72 43 14 11 28 19 31 19 2 0 60 32 128 71 132 76 184 123 199 179 12 49
12 1644 -1 1694 -10 37 -95 134 -107 121 -3 -3 -12 1 -21 8 -9 8 -70 44 -136
82 -66 37 -147 84 -180 104 -33 20 -72 43 -87 50 -15 8 -25 17 -23 22 7 10
144 89 156 89 5 0 9 4 9 9 0 5 10 13 22 17 12 3 44 21 72 39 28 17 58 35 66
39 8 4 24 12 35 19 11 7 45 26 75 44 31 17 65 42 77 55 51 54 66 148 35 213
-15 31 -71 95 -83 95 -4 0 -69 37 -145 81 -198 116 -236 138 -264 152 -14 6
-27 14 -30 17 -5 5 -13 9 -89 52 -20 11 -88 51 -151 88 -63 37 -122 70 -130
74 -8 3 -28 15 -45 26 -16 11 -37 23 -45 27 -7 4 -42 24 -77 45 -34 21 -65 38
-68 38 -3 0 -24 12 -48 27 -23 15 -55 34 -72 43 -16 9 -104 59 -195 112 -91
52 -282 163 -425 245 -143 83 -316 182 -384 222 -68 39 -127 71 -132 71 -5 0
-9 5 -9 10 0 6 -4 10 -10 10 -5 0 -32 14 -60 30 -75 44 -150 50 -212 16z"/>
</g>
</svg>
