<svg xmlns="http://www.w3.org/2000/svg" viewBox="0 0 64.23 70.37"><defs><style>.cls-1{fill:#fec042;}.cls-2{fill:#632df1;}</style></defs><g id="Layer_2" data-name="Layer 2"><g id="Layer_1-2" data-name="Layer 1"><path class="cls-1" d="M64.21,50.73V30.88L48.35,40.34l-15.58-9a2.49,2.49,0,0,0-2.49,0L16.82,39.28l-4-7.21L0,30.69V50.5H0a2.41,2.41,0,0,0,1.22,2.23L31.21,70a2.49,2.49,0,0,0,2.48,0L63,53.07A2.45,2.45,0,0,0,64.21,50.73Z"/><path class="cls-2" d="M32.77,11.51,63,29a2.47,2.47,0,0,1,0,4.28l-29.31,17a2.49,2.49,0,0,1-2.48,0L1.26,32.9a2.47,2.47,0,0,1,0-4.27l29-17.11A2.47,2.47,0,0,1,32.77,11.51Z"/><path class="cls-1" d="M32.77.33,63,17.77a2.47,2.47,0,0,1,0,4.28L33.69,39a2.49,2.49,0,0,1-2.48,0L1.26,21.72a2.47,2.47,0,0,1,0-4.27L30.28.34A2.49,2.49,0,0,1,32.77.33Z"/></g></g></svg>