<svg xmlns="http://www.w3.org/2000/svg" viewBox="0 0 55 55"><defs><style>.cls-1,.cls-2{fill:none;}.cls-1{stroke:#3e315a;stroke-linecap:round;stroke-linejoin:round;stroke-width:3px;}</style></defs><g id="Layer_2" data-name="Layer 2"><g id="Layer_1-2" data-name="Layer 1"><g id="Category-5"><path id="Stroke_1-4" data-name="Stroke 1-4" class="cls-1" d="M36.93,5.5H44.1a5.41,5.41,0,0,1,5.4,5.42h0v7.25a5.42,5.42,0,0,1-5.39,5.44H36.94a5.42,5.42,0,0,1-5.39-5.44V10.93A5.42,5.42,0,0,1,36.93,5.5Z"/><path id="Stroke_3-4" data-name="Stroke 3-4" class="cls-1" d="M10.89,5.5h7.17a5.4,5.4,0,0,1,5.38,5.42h0v7.25a5.41,5.41,0,0,1-5.38,5.44H10.89A5.42,5.42,0,0,1,5.5,18.18V10.93A5.41,5.41,0,0,1,10.89,5.5Z"/><path id="Stroke_5-4" data-name="Stroke 5-4" class="cls-1" d="M10.89,31.39h7.17a5.4,5.4,0,0,1,5.38,5.42h0v7.26a5.41,5.41,0,0,1-5.36,5.42H10.91A5.42,5.42,0,0,1,5.5,44.08V36.82a5.41,5.41,0,0,1,5.39-5.43Z"/><path id="Stroke_7-4" data-name="Stroke 7-4" class="cls-1" d="M36.93,31.39H44.1a5.4,5.4,0,0,1,5.4,5.42h0v7.26a5.42,5.42,0,0,1-5.38,5.42H37a5.43,5.43,0,0,1-5.39-5.43V36.82A5.41,5.41,0,0,1,37,31.39h0Z"/></g><rect class="cls-2" width="55" height="55"/></g></g></svg>